<?xml version="1.0" encoding="UTF-8" standalone="no"?>
<svg
   fill="none"
   height="566"
   viewBox="0 0 282.72 14.4896"
   width="2500"
   version="1.1"
   id="svg4"
   sodipodi:docname="vercel.svg"
   inkscape:version="1.2 (dc2aedaf03, 2022-05-15)"
   xmlns:inkscape="http://www.inkscape.org/namespaces/inkscape"
   xmlns:sodipodi="http://sodipodi.sourceforge.net/DTD/sodipodi-0.dtd"
   xmlns="http://www.w3.org/2000/svg"
   xmlns:svg="http://www.w3.org/2000/svg">
  <defs
     id="defs8" />
  <sodipodi:namedview
     id="namedview6"
     pagecolor="#ffffff"
     bordercolor="#000000"
     borderopacity="0.25"
     inkscape:showpageshadow="2"
     inkscape:pageopacity="0.0"
     inkscape:pagecheckerboard="0"
     inkscape:deskcolor="#d1d1d1"
     showgrid="false"
     inkscape:zoom="0.3388"
     inkscape:cx="1137.8394"
     inkscape:cy="543.09327"
     inkscape:window-width="1920"
     inkscape:window-height="1027"
     inkscape:window-x="-8"
     inkscape:window-y="-8"
     inkscape:window-maximized="1"
     inkscape:current-layer="svg4" />
  <path
     d="m 141.04,-8.7552 c -11.04,0 -19,7.2 -19,18 0,10.8 8.96,18 20,18 6.67,0 12.55,-2.64 16.19,-7.09 l -7.65,-4.42 c -2.02,2.21 -5.09,3.5 -8.54,3.5 -4.79,0 -8.86,-2.5 -10.37,-6.5 h 28.02 c 0.22,-1.12 0.35,-2.28 0.35,-3.5 0,-10.79 -7.96,-17.99 -19,-17.99 z m -9.46,14.5 c 1.25,-3.99 4.67,-6.5 9.45,-6.5 4.79,0 8.21,2.51 9.45,6.5 z m 117.14,-14.5 c -11.04,0 -19,7.2 -19,18 0,10.8 8.96,18 20,18 6.67,0 12.55,-2.64 16.19,-7.09 l -7.65,-4.42 c -2.02,2.21 -5.09,3.5 -8.54,3.5 -4.79,0 -8.86,-2.5 -10.37,-6.5 h 28.02 c 0.22,-1.12 0.35,-2.28 0.35,-3.5 0,-10.79 -7.96,-17.99 -19,-17.99 z m -9.45,14.5 c 1.25,-3.99 4.67,-6.5 9.45,-6.5 4.79,0 8.21,2.51 9.45,6.5 z m -39.03,3.5 c 0,6 3.92,10 10,10 4.12,0 7.21,-1.87 8.8,-4.92 l 7.68,4.43 c -3.18,5.3 -9.14,8.49 -16.48,8.49 -11.05,0 -19,-7.2 -19,-18 0,-10.8 7.96,-18 19,-18 7.34,0 13.29,3.19 16.48,8.49 l -7.68,4.43 c -1.59,-3.05 -4.68,-4.92 -8.8,-4.92 -6.07,0 -10,4 -10,10 z m 82.48,-29 v 46 h -9 v -46 z m -245.77,-5 36.95,64 H 0 Z m 92.38,5 -27.71,48 -27.71,-48 H 84.3 l 17.32,30 17.32,-30 z m 58.91,12 v 9.69 c -1,-0.29 -2.06,-0.49 -3.2,-0.49 -5.81,0 -10,4 -10,10 v 14.8 h -9 v -34 h 9 v 9.2 c 0,-5.08 5.91,-9.2 13.2,-9.2 z"
     fill="#000000"
     id="path2" />
</svg>
