<?xml version="1.0" encoding="UTF-8" standalone="no"?>
<svg
   role="img"
   viewBox="0 0 24 15"
   version="1.1"
   id="svg6"
   sodipodi:docname="directus.svg"
   width="24"
   height="15"
   inkscape:version="1.2 (dc2aedaf03, 2022-05-15)"
   xmlns:inkscape="http://www.inkscape.org/namespaces/inkscape"
   xmlns:sodipodi="http://sodipodi.sourceforge.net/DTD/sodipodi-0.dtd"
   xmlns="http://www.w3.org/2000/svg"
   xmlns:svg="http://www.w3.org/2000/svg"
   xmlns:rdf="http://www.w3.org/1999/02/22-rdf-syntax-ns#"
   xmlns:cc="http://creativecommons.org/ns#"
   xmlns:dc="http://purl.org/dc/elements/1.1/">
  <defs
     id="defs10" />
  <sodipodi:namedview
     id="namedview8"
     pagecolor="#ffffff"
     bordercolor="#000000"
     borderopacity="0.25"
     inkscape:showpageshadow="2"
     inkscape:pageopacity="0.0"
     inkscape:pagecheckerboard="0"
     inkscape:deskcolor="#d1d1d1"
     showgrid="false"
     inkscape:zoom="11.145833"
     inkscape:cx="-1.211215"
     inkscape:cy="11.753271"
     inkscape:window-width="1366"
     inkscape:window-height="715"
     inkscape:window-x="-8"
     inkscape:window-y="-8"
     inkscape:window-maximized="1"
     inkscape:current-layer="svg6" />
  <title
     id="title2">Directus icon</title>
  <path
     d="m 19.187,9.4087095 a 1.74,1.74 0 0 1 -0.286,-0.092 0.657,0.657 0 0 1 -0.203,-0.139 c 0.056,-0.488 0,-0.912 0.047,-1.392 0.184,-1.862 1.355,-1.272 2.406,-1.577 0.655,-0.184 1.31,-0.562 1.475,-1.336 a 13.528,13.528 0 0 0 -2.397,-2.204 c -2.85,-2.028 -6.574,-2.84 -9.958,-2.277 a 5.113,5.113 0 0 0 2.238,2.074 c 0,0 -0.917,0 -1.703,-0.587 -0.23,0.092 -0.692,0.274 -0.913,0.384 a 5.094,5.094 0 0 0 6.63,0.37 c -0.01,0.017 -0.185,0.285 -0.397,1.4 -0.47,2.38 -1.826,2.195 -3.504,1.596 -3.485,-1.264 -5.403,-0.093 -7.145,-2.49 -0.507,0.286 -0.82,0.82 -0.82,1.402 0,0.599 0.331,1.106 0.81,1.383 0.262,-0.348 0.38,-0.446 0.836,-0.446 -0.706,0.4 -0.79,0.75 -1.094,1.718 -0.368,1.171 -0.212,2.37 -1.936,2.683 -0.913,0.046 -0.894,0.6640005 -1.226,1.5860005 -0.415,1.199 -0.968,1.678 -2.047,2.812 0.443,0.535 0.904,0.6 1.374,0.406 0.968,-0.406 1.715,-1.66 2.415,-2.471 0.784,-0.904 2.665,-0.517 4.085,-1.402 0.977,-0.599 1.457,-1.4100005 0.811,-2.7840005 a 2.72,2.72 0 0 1 0.701,1.66 c 1.641,-0.213 3.836,1.7880005 5.836,2.1200005 a 3.574,3.574 0 0 1 -0.488,-0.82 c -0.23,-0.554 -0.304,-1.0600005 -0.258,-1.5030005 0.184,1.0970005 1.29,2.5070005 3.07,2.6370005 0.452,0.036 0.95,-0.019 1.466,-0.176 0.618,-0.184 1.19,-0.424 1.872,-0.295 0.507,0.093 0.977,0.35 1.272,0.784 0.443,0.645 1.41,0.784 1.844,-0.009 C 23.023,9.8697095 20.33,9.7037095 19.187,9.4087095 Z"
     id="path4" />
  <metadata
     id="metadata293">
    <rdf:RDF>
      <cc:Work
         rdf:about="">
        <dc:title>Directus icon</dc:title>
      </cc:Work>
    </rdf:RDF>
  </metadata>
</svg>
