<?xml version="1.0" encoding="UTF-8" standalone="no"?>
<svg
   width="32"
   height="32"
   viewBox="0 0 8.4666664 8.4666672"
   version="1.1"
   id="svg8"
   inkscape:version="1.1.2 (b8e25be833, 2022-02-05)"
   sodipodi:docname="favicon.svg"
   inkscape:export-filename="C:\Users\Seez\Documents\portfolio favicon 2.png"
   inkscape:export-xdpi="126.316"
   inkscape:export-ydpi="126.316"
   xmlns:inkscape="http://www.inkscape.org/namespaces/inkscape"
   xmlns:sodipodi="http://sodipodi.sourceforge.net/DTD/sodipodi-0.dtd"
   xmlns="http://www.w3.org/2000/svg"
   xmlns:svg="http://www.w3.org/2000/svg"
   xmlns:rdf="http://www.w3.org/1999/02/22-rdf-syntax-ns#"
   xmlns:cc="http://creativecommons.org/ns#"
   xmlns:dc="http://purl.org/dc/elements/1.1/">
  <defs
     id="defs2" />
  <sodipodi:namedview
     id="base"
     pagecolor="#ffffff"
     bordercolor="#666666"
     borderopacity="1.0"
     inkscape:pageopacity="0.0"
     inkscape:pageshadow="2"
     inkscape:zoom="0.77141223"
     inkscape:cx="160.09598"
     inkscape:cy="145.18826"
     inkscape:document-units="px"
     inkscape:current-layer="layer1"
     inkscape:document-rotation="0"
     showgrid="false"
     units="px"
     inkscape:window-width="1920"
     inkscape:window-height="1027"
     inkscape:window-x="-8"
     inkscape:window-y="-8"
     inkscape:window-maximized="1"
     inkscape:pagecheckerboard="0"
     width="370px" />
  <metadata
     id="metadata5">
    <rdf:RDF>
      <cc:Work
         rdf:about="">
        <dc:format>image/svg+xml</dc:format>
        <dc:type
           rdf:resource="http://purl.org/dc/dcmitype/StillImage" />
      </cc:Work>
    </rdf:RDF>
  </metadata>
  <g
     inkscape:label="Layer 1"
     inkscape:groupmode="layer"
     id="layer1">
    <g
       style="fill:#2a7fff"
       id="g1595"
       transform="matrix(0.46299454,0,0,0.46299454,0.52937708,0.52937079)">
      <path
         d="m 11.251,0.068 a 0.5,0.5 0 0 1 0.227,0.58 L 9.677,6.5 H 13 a 0.5,0.5 0 0 1 0.364,0.843 l -8,8.5 A 0.5,0.5 0 0 1 4.522,15.353 L 6.323,9.5 H 3 A 0.5,0.5 0 0 1 2.636,8.657 l 8,-8.5 a 0.5,0.5 0 0 1 0.615,-0.09 z"
         id="path1593"
         style="fill:#2a7fff" />
    </g>
    <g
       aria-label="S"
       id="text4954"
       style="font-weight:bold;font-size:10.5833px;line-height:1.25;font-family:Poppins;-inkscape-font-specification:'Poppins, Bold';fill:#2a7fff;stroke-width:0.264583"
       transform="matrix(0.97357745,0,0,0.97357745,27.170657,-25.857721)">
      <path
         d="m 1.3721551,21.853674 q -0.8149141,0 -1.46049538,-0.264583 -0.64558127,-0.264582 -1.03716332,-0.783164 -0.3809988,-0.518582 -0.4021654,-1.248829 h 1.92616051 q 0.0423332,0.412748 0.28574909,0.634998 0.24341589,0.211666 0.634998,0.211666 0.4021654,0 0.634998,-0.179916 0.2328325,-0.1905 0.2328325,-0.518582 0,-0.275166 -0.1904993,-0.455082 Q 1.8166537,19.070266 1.5414879,18.95385 1.2769054,18.837433 0.77949029,18.689267 0.05982592,18.467018 -0.39525597,18.244769 q -0.45508188,-0.22225 -0.78316413,-0.656165 -0.3280823,-0.433915 -0.3280823,-1.132413 0,-1.037163 0.75141425,-1.619245 0.75141427,-0.592665 1.95791045,-0.592665 1.2276627,0 1.979077,0.592665 0.7514143,0.582082 0.8043308,1.629828 H 2.0283197 Q 2.0071531,16.106942 1.7637372,15.905859 1.5203213,15.694193 1.1393225,15.694193 q -0.32808231,0 -0.529165,0.179916 -0.20108269,0.169333 -0.20108269,0.497415 0,0.359833 0.33866559,0.560915 0.3386656,0.201083 1.05833,0.433916 0.7196643,0.243416 1.1641629,0.465665 0.4550819,0.222249 0.7831642,0.645581 0.3280823,0.423332 0.3280823,1.09008 0,0.634998 -0.3280823,1.15358 -0.317499,0.518581 -0.9313304,0.825497 -0.6138314,0.306916 -1.449912,0.306916 z"
         id="path7252" />
    </g>
  </g>
</svg>
